<svg xmlns="http://www.w3.org/2000/svg" style="display:none;">
<defs>
    <symbol id="icon-facebook" width="20" height="20" viewBox="0 0 20 20" fill="none" xmlns="http://www.w3.org/2000/svg">
        <path d="M12.2 2.9001C12.35 2.9001 12.5 2.9001 12.8 2.9001V5.1501C12.65 5.1501 12.35 5.1501 12.05 5.1501C11.75 5.1501 11.45 5.1501 11.3 5.3001C11.15 5.4501 11.15 5.6001 11.15 5.9501C11.15 6.2501 11.15 6.4501 11.15 6.7501H12.8V8.6501H11.15V16.9001H8.60001V8.6001H7.25V6.7001H8.60001V6.0501C8.60001 4.9501 8.75 4.1501 9.05 3.8001C9.5 3.1501 10.4 2.8501 11.75 2.8501C11.9 2.9001 12.05 2.9001 12.2 2.9001Z" fill="#050505"/>
    </symbol>

    <symbol id="icon-youtube" width="20" height="20" viewBox="0 0 20 20" fill="none" xmlns="http://www.w3.org/2000/svg">
        <path d="M18.82 5.84762C18.82 5.84762 18.64 4.54762 18.1 3.99048C17.44 3.24762 16.66 3.24762 16.3 3.18571C13.78 3 10 3 10 3C10 3 6.22 3 3.7 3.18571C3.34 3.24762 2.56 3.24762 1.9 3.99048C1.36 4.54762 1.18 5.84762 1.18 5.84762C1.18 5.84762 1 7.33333 1 8.81905V10.181C1 11.6667 1.18 13.2143 1.18 13.2143C1.18 13.2143 1.36 14.5143 1.9 15.0714C2.56 15.8143 3.46 15.8143 3.88 15.8762C5.32 15.9381 10 16 10 16C10 16 13.78 16 16.3 15.8143C16.66 15.7524 17.44 15.7524 18.1 15.0095C18.64 14.4524 18.82 13.1524 18.82 13.1524C18.82 13.1524 19 11.6667 19 10.181V8.81905C19 7.33333 18.82 5.84762 18.82 5.84762ZM8.14 11.9143V6.71429L13 9.31429L8.14 11.9143Z" fill="#050505"/>
    </symbol>

    <symbol id="icon-instagram" width="20" height="20" viewBox="0 0 20 20" fill="none" xmlns="http://www.w3.org/2000/svg">
        <path d="M17.9485 6.72248C17.9387 6.051 17.8143 5.38485 17.5762 4.75685C17.1595 3.68444 16.311 2.83646 15.2368 2.42133C14.6157 2.18805 13.9591 2.06298 13.2945 2.04879C12.4398 2.01064 12.1688 2 9.99911 2C7.82941 2 7.55131 2 6.7028 2.04879C6.03909 2.06298 5.3825 2.18805 4.76144 2.42133C3.68725 2.83646 2.83785 3.68444 2.42203 4.75685C2.18836 5.37687 2.06219 6.03238 2.04976 6.69498C2.01155 7.54917 2 7.81972 2 9.98581C2 12.1519 2 12.4287 2.04976 13.2766C2.06308 13.9401 2.18836 14.5947 2.42203 15.2165C2.83874 16.2881 3.68725 17.136 4.76233 17.5512C5.38072 17.7924 6.03732 17.929 6.70369 17.9503C7.55931 17.9885 7.8303 18 10 18C12.1697 18 12.4478 18 13.2963 17.9503C13.96 17.937 14.6166 17.812 15.2386 17.5787C16.3127 17.1627 17.1613 16.3147 17.578 15.2432C17.8116 14.6222 17.9369 13.9676 17.9502 13.3033C17.9884 12.4499 18 12.1794 18 10.0124C17.9982 7.84633 17.9982 7.57135 17.9485 6.72248ZM9.99378 14.0821C7.72457 14.0821 5.88627 12.2468 5.88627 9.98137C5.88627 7.71593 7.72457 5.8807 9.99378 5.8807C12.2612 5.8807 14.1013 7.71593 14.1013 9.98137C14.1013 12.2468 12.2612 14.0821 9.99378 14.0821ZM14.2648 6.68522C13.7343 6.68522 13.307 6.25768 13.307 5.72902C13.307 5.20036 13.7343 4.77281 14.2648 4.77281C14.7934 4.77281 15.2217 5.20036 15.2217 5.72902C15.2217 6.25768 14.7934 6.68522 14.2648 6.68522Z" fill="#050505"/>
        <path d="M9.99469 12.485C11.3768 12.485 12.4972 11.3646 12.4972 9.98248C12.4972 8.60039 11.3768 7.47998 9.99469 7.47998C8.61259 7.47998 7.49219 8.60039 7.49219 9.98248C7.49219 11.3646 8.61259 12.485 9.99469 12.485Z" fill="#050505"/>
    </symbol>

    <symbol id="icon-logo-footer" width="83" height="28" viewBox="0 0 83 28" fill="none" xmlns="http://www.w3.org/2000/svg">
        <path d="M2.4 23V13.544H0.096V10.832H3.432L2.4 11.768V10.016C2.4 8.432 2.808 7.24 3.624 6.44C4.456 5.64 5.696 5.24 7.344 5.24C7.712 5.24 8.104 5.264 8.52 5.312C8.952 5.36 9.328 5.456 9.648 5.6V8.384C9.424 8.304 9.168 8.248 8.88 8.216C8.592 8.168 8.312 8.144 8.04 8.144C7.672 8.144 7.328 8.208 7.008 8.336C6.704 8.464 6.456 8.68 6.264 8.984C6.088 9.272 6 9.664 6 10.16V11.432L5.496 10.832H9.072V13.544H6.024V23H2.4ZM15.7446 23.264C14.4486 23.264 13.3206 23.008 12.3606 22.496C11.4166 21.968 10.6806 21.232 10.1526 20.288C9.64056 19.344 9.38456 18.216 9.38456 16.904C9.38456 15.608 9.64056 14.488 10.1526 13.544C10.6806 12.6 11.4166 11.872 12.3606 11.36C13.3206 10.848 14.4486 10.592 15.7446 10.592C17.0406 10.592 18.1686 10.848 19.1286 11.36C20.0886 11.872 20.8246 12.6 21.3366 13.544C21.8646 14.488 22.1286 15.608 22.1286 16.904C22.1286 18.216 21.8646 19.344 21.3366 20.288C20.8246 21.232 20.0886 21.968 19.1286 22.496C18.1686 23.008 17.0406 23.264 15.7446 23.264ZM15.7446 20.528C16.5766 20.528 17.2326 20.232 17.7126 19.64C18.2086 19.048 18.4566 18.136 18.4566 16.904C18.4566 15.672 18.2086 14.768 17.7126 14.192C17.2326 13.616 16.5766 13.328 15.7446 13.328C14.9126 13.328 14.2486 13.616 13.7526 14.192C13.2726 14.768 13.0326 15.672 13.0326 16.904C13.0326 18.136 13.2726 19.048 13.7526 19.64C14.2486 20.232 14.9126 20.528 15.7446 20.528ZM29.7489 23.264C28.4529 23.264 27.3249 23.008 26.3649 22.496C25.4209 21.968 24.6849 21.232 24.1569 20.288C23.6449 19.344 23.3889 18.216 23.3889 16.904C23.3889 15.608 23.6449 14.488 24.1569 13.544C24.6849 12.6 25.4209 11.872 26.3649 11.36C27.3249 10.848 28.4529 10.592 29.7489 10.592C31.0449 10.592 32.1729 10.848 33.1329 11.36C34.0929 11.872 34.8289 12.6 35.3409 13.544C35.8689 14.488 36.1329 15.608 36.1329 16.904C36.1329 18.216 35.8689 19.344 35.3409 20.288C34.8289 21.232 34.0929 21.968 33.1329 22.496C32.1729 23.008 31.0449 23.264 29.7489 23.264ZM29.7489 20.528C30.5809 20.528 31.2369 20.232 31.7169 19.64C32.2129 19.048 32.4609 18.136 32.4609 16.904C32.4609 15.672 32.2129 14.768 31.7169 14.192C31.2369 13.616 30.5809 13.328 29.7489 13.328C28.9169 13.328 28.2529 13.616 27.7569 14.192C27.2769 14.768 27.0369 15.672 27.0369 16.904C27.0369 18.136 27.2769 19.048 27.7569 19.64C28.2529 20.232 28.9169 20.528 29.7489 20.528ZM42.7693 23.264C41.7133 23.264 40.7773 23.008 39.9613 22.496C39.1613 21.984 38.5293 21.256 38.0653 20.312C37.6173 19.368 37.3933 18.232 37.3933 16.904C37.3933 15.592 37.6173 14.464 38.0653 13.52C38.5133 12.576 39.1453 11.856 39.9613 11.36C40.7773 10.848 41.7133 10.592 42.7693 10.592C43.7293 10.592 44.5853 10.824 45.3373 11.288C46.1053 11.736 46.6173 12.344 46.8733 13.112H46.5613V5.336H50.1853V23H46.6093V20.624H46.9213C46.6653 21.424 46.1533 22.064 45.3853 22.544C44.6173 23.024 43.7453 23.264 42.7693 23.264ZM43.8493 20.528C44.6813 20.528 45.3533 20.232 45.8653 19.64C46.3773 19.048 46.6333 18.136 46.6333 16.904C46.6333 15.672 46.3773 14.768 45.8653 14.192C45.3533 13.616 44.6813 13.328 43.8493 13.328C43.0173 13.328 42.3373 13.616 41.8093 14.192C41.2973 14.768 41.0413 15.672 41.0413 16.904C41.0413 18.136 41.2973 19.048 41.8093 19.64C42.3373 20.232 43.0173 20.528 43.8493 20.528ZM52.6774 23V10.832H56.3014V23H52.6774ZM52.5334 8.84V5.456H56.4214V8.84H52.5334ZM64.9033 23.264C62.7913 23.264 61.1433 22.696 59.9593 21.56C58.7753 20.424 58.1833 18.88 58.1833 16.928C58.1833 15.664 58.4313 14.56 58.9273 13.616C59.4393 12.672 60.1433 11.936 61.0393 11.408C61.9513 10.864 63.0153 10.592 64.2313 10.592C65.4313 10.592 66.4313 10.848 67.2313 11.36C68.0473 11.872 68.6553 12.592 69.0553 13.52C69.4713 14.432 69.6793 15.496 69.6793 16.712V17.552H61.1593V15.752H67.0393L66.6313 16.088C66.6313 15.08 66.4233 14.32 66.0073 13.808C65.6073 13.28 65.0233 13.016 64.2553 13.016C63.4073 13.016 62.7513 13.328 62.2873 13.952C61.8393 14.576 61.6153 15.472 61.6153 16.64V17.024C61.6153 18.208 61.9033 19.088 62.4793 19.664C63.0713 20.24 63.9193 20.528 65.0233 20.528C65.6793 20.528 66.2953 20.448 66.8713 20.288C67.4633 20.112 68.0233 19.84 68.5513 19.472L69.5593 21.872C68.9513 22.32 68.2473 22.664 67.4473 22.904C66.6633 23.144 65.8153 23.264 64.9033 23.264ZM75.9866 23.264C74.8986 23.264 73.9066 23.144 73.0106 22.904C72.1146 22.664 71.3546 22.328 70.7306 21.896L71.6666 19.496C72.2906 19.88 72.9786 20.184 73.7306 20.408C74.4986 20.632 75.2586 20.744 76.0106 20.744C76.7146 20.744 77.2346 20.632 77.5706 20.408C77.9066 20.184 78.0746 19.88 78.0746 19.496C78.0746 19.176 77.9626 18.928 77.7386 18.752C77.5306 18.576 77.2026 18.448 76.7546 18.368L74.2826 17.912C73.2426 17.704 72.4506 17.32 71.9066 16.76C71.3626 16.2 71.0906 15.472 71.0906 14.576C71.0906 13.792 71.2986 13.104 71.7146 12.512C72.1466 11.904 72.7626 11.432 73.5626 11.096C74.3626 10.76 75.2986 10.592 76.3706 10.592C77.2826 10.592 78.1466 10.704 78.9626 10.928C79.7786 11.152 80.4746 11.496 81.0506 11.96L80.0666 14.288C79.5706 13.92 78.9946 13.624 78.3386 13.4C77.6986 13.176 77.0826 13.064 76.4906 13.064C75.7226 13.064 75.1706 13.192 74.8346 13.448C74.4986 13.688 74.3306 14 74.3306 14.384C74.3306 14.672 74.4266 14.912 74.6186 15.104C74.8266 15.296 75.1386 15.44 75.5546 15.536L78.0506 15.992C79.1226 16.184 79.9386 16.544 80.4986 17.072C81.0586 17.6 81.3386 18.328 81.3386 19.256C81.3386 20.104 81.1146 20.824 80.6666 21.416C80.2186 22.008 79.5866 22.464 78.7706 22.784C77.9706 23.104 77.0426 23.264 75.9866 23.264Z" fill="currentColor"/>
    </symbol>

    <symbol id="icon-quote" viewBox="0 0 32 32">
    <path fill="#e8e8e8" d="M0 29.017v-8.71q0-4.881 1.719-8.997t5.827-8.327l4.968 3.924q-2.388 2.393-3.63 4.498-1.242 2.106-1.624 4.308h6.114v13.304zM18.627 29.017v-8.71q0-4.881 1.719-8.997t5.827-8.327l4.967 3.924q-2.388 2.393-3.63 4.498-1.241 2.106-1.624 4.308h6.114v13.304z"></path>
    </symbol>
    <svg id="icon-burger" viewBox="0 0 28 28" fill="none" xmlns="http://www.w3.org/2000/svg">
        <path d="M24.5 11.6665H3.5" stroke="currentColor" stroke-width="2" stroke-linecap="round" stroke-linejoin="round"/>
        <path d="M24.5 7H3.5" stroke="currentColor" stroke-width="2" stroke-linecap="round" stroke-linejoin="round"/>
        <path d="M24.5 16.3335H3.5" stroke="currentColor" stroke-width="2" stroke-linecap="round" stroke-linejoin="round"/>
        <path d="M24.5 21H3.5" stroke="currentColor" stroke-width="2" stroke-linecap="round" stroke-linejoin="round"/>
    </svg>

    <symbol id="icon-arrow-up-right" viewBox="0 0 18 18">
        <path d="M13.5 12.75C13.5 13.1642 13.1642 13.5 12.75 13.5C12.3358 13.5 12 13.1642 12 12.75V7.06055L5.78027 13.2803C5.48738 13.5732 5.01262 13.5732 4.71973 13.2803C4.42683 12.9874 4.42683 12.5126 4.71973 12.2197L10.9395 6H5.25C4.83579 6 4.5 5.66421 4.5 5.25C4.5 4.83579 4.83579 4.5 5.25 4.5H12.75C13.1642 4.5 13.5 4.83579 13.5 5.25V12.75Z"/>
    </symbol>
    <symbol id="icon-chevron-up" viewBox="0 0 32 32">
    <path stroke-linejoin="round" stroke-linecap="round" stroke-miterlimit="4" stroke-width="3.2" d="M8 20l8-8 8 8"></path>
    </symbol>
    <symbol id="icon-eye" viewBox="0 0 20 20" fill="none" xmlns="http://www.w3.org/2000/svg">
        <g clip-path="url(#clip0_127_2594)">
            <path d="M0.833008 10.0002C0.833008 10.0002 4.16634 3.3335 9.99968 3.3335C15.833 3.3335 19.1663 10.0002 19.1663 10.0002C19.1663 10.0002 15.833 16.6668 9.99968 16.6668C4.16634 16.6668 0.833008 10.0002 0.833008 10.0002Z" stroke="#050505" stroke-width="1.8" stroke-linecap="round" stroke-linejoin="round"/>
            <path d="M10 12.5C11.3807 12.5 12.5 11.3807 12.5 10C12.5 8.61929 11.3807 7.5 10 7.5C8.61929 7.5 7.5 8.61929 7.5 10C7.5 11.3807 8.61929 12.5 10 12.5Z" stroke="#050505" stroke-width="1.8" stroke-linecap="round" stroke-linejoin="round"/>
        </g>
        <defs>
            <clipPath id="clip0_127_2594">
                <rect width="20" height="20" fill="currentColor"/>
            </clipPath>
        </defs>
    </symbol>
    <svg id="icon-eye-off" viewBox="0 0 20 20" fill="none" xmlns="http://www.w3.org/2000/svg">
        <g clip-path="url(#clip0_127_2593)">
            <path d="M14.9497 14.9502C13.5252 16.036 11.7906 16.6376 9.99968 16.6668C4.16634 16.6668 0.833008 10.0002 0.833008 10.0002C1.86958 8.06843 3.30729 6.38069 5.04967 5.05018M8.24968 3.53352C8.82329 3.39925 9.41056 3.33213 9.99968 3.33352C15.833 3.33352 19.1663 10.0002 19.1663 10.0002C18.6605 10.9465 18.0572 11.8375 17.3663 12.6585M11.7663 11.7668C11.5375 12.0125 11.2615 12.2095 10.9548 12.3461C10.6481 12.4828 10.3171 12.5562 9.98142 12.5622C9.64574 12.5681 9.31231 12.5063 9.00102 12.3806C8.68972 12.2549 8.40694 12.0677 8.16955 11.8303C7.93215 11.5929 7.745 11.3101 7.61927 10.9988C7.49353 10.6875 7.43178 10.3541 7.4377 10.0184C7.44363 9.68276 7.5171 9.35172 7.65374 9.04506C7.79038 8.73839 7.98739 8.46239 8.23301 8.23352" stroke="#050505" stroke-width="1.8" stroke-linecap="round" stroke-linejoin="round"/>
            <path d="M0.833008 0.833496L19.1663 19.1668" stroke="#050505" stroke-width="1.8" stroke-linecap="round" stroke-linejoin="round"/>
        </g>
        <defs>
            <clipPath id="clip0_127_2593">
                <rect width="20" height="20" fill="currentColor"/>
            </clipPath>
        </defs>
    </svg>

    <symbol id="icon-upload-photo" viewBox="0 0 32 32">
    <path fill="none" stroke="currentColor" stroke-linejoin="round" stroke-linecap="round" stroke-miterlimit="4" stroke-width="0.64" d="M28.19 11.428v-4.58c0-0 0-0.001 0-0.001 0-1.68-1.359-3.042-3.038-3.046l-4.581-0.013M28.19 20.572v4.572c0 0 0 0 0 0.001 0 1.682-1.364 3.046-3.046 3.046-0 0-0 0-0.001 0h-4.571M11.428 3.787l-4.58 0.015c-1.679 0.004-3.039 1.367-3.039 3.046 0 0 0 0.001 0 0.001v-0 4.579M11.428 28.19h-4.572c-0 0-0.001 0-0.001 0-1.682 0-3.046-1.364-3.046-3.046 0-0 0-0 0-0.001v0-4.572"></path>
    <path d="M16 18.75q0.938 0 1.594-0.656t0.657-1.594-0.656-1.594-1.594-0.656-1.594 0.656-0.657 1.594 0.656 1.594q0.657 0.657 1.594 0.657zM12 20.5q-0.413 0-0.706-0.293c-0.182-0.175-0.294-0.42-0.294-0.692 0-0.005 0-0.010 0-0.015v0.001-6q0-0.413 0.294-0.706 0.293-0.294 0.706-0.294h1.574l0.925-1h3l0.925 1h1.575q0.413 0 0.707 0.294 0.294 0.293 0.294 0.706v6q0 0.412-0.294 0.707c-0.175 0.181-0.42 0.293-0.691 0.293-0.005 0-0.011-0-0.016-0h0.001z"></path>
    </symbol>
    <symbol id="icon-heart" viewBox="0 0 18 18">
        <path d="M16.0889 6.37451C16.0888 5.9313 16.0007 5.49198 15.8311 5.08252C15.6826 4.72429 15.4738 4.39459 15.2139 4.10791L15.0996 3.98779C14.7862 3.67423 14.4135 3.42508 14.0039 3.25537C13.5944 3.08571 13.1552 2.99854 12.7119 2.99854C12.2686 2.99856 11.8294 3.08569 11.4199 3.25537C11.0104 3.42508 10.6386 3.67426 10.3252 3.98779L9.53027 4.78271C9.23745 5.07554 8.76264 5.07539 8.46973 4.78271L7.67383 3.98779C7.04073 3.3548 6.18238 2.99854 5.28711 2.99854C4.39184 2.99854 3.53349 3.3548 2.90039 3.98779C2.26737 4.62082 1.91124 5.47929 1.91113 6.37451C1.91113 7.26987 2.26727 8.12909 2.90039 8.76221L9 14.8618L15.0996 8.76221C15.4132 8.44879 15.6613 8.07608 15.8311 7.6665C16.0007 7.25697 16.0889 6.8178 16.0889 6.37451ZM17.5889 6.37451C17.5889 7.01486 17.4619 7.64915 17.2168 8.24072C17.0023 8.75833 16.7007 9.2347 16.3252 9.64893L16.1602 9.82275L9.53027 16.4526C9.38972 16.5932 9.19877 16.6723 9 16.6724C8.80117 16.6724 8.61036 16.5932 8.46973 16.4526L1.83887 9.82275C0.924566 8.90835 0.411133 7.66761 0.411133 6.37451C0.411237 5.0816 0.924718 3.84155 1.83887 2.92725C2.75329 2.01282 3.99392 1.49854 5.28711 1.49854C6.58029 1.49854 7.82093 2.01283 8.73535 2.92725L9 3.19189L9.26367 2.92725L9.4375 2.76221C9.8518 2.38653 10.3279 2.08419 10.8457 1.86963C11.4373 1.62452 12.0716 1.49856 12.7119 1.49854C13.3522 1.49854 13.9866 1.62453 14.5781 1.86963C15.1697 2.11476 15.7074 2.47432 16.1602 2.92725C16.6129 3.37989 16.9717 3.91781 17.2168 4.50928C17.4618 5.10069 17.5888 5.73436 17.5889 6.37451Z"/>
    </symbol>
    <symbol id="icon-minus" viewBox="0 0 32 32">
    <path stroke-linejoin="round" stroke-linecap="round" stroke-miterlimit="4" stroke-width="2" d="M6.667 16h18.667"></path>
    </symbol>
    <symbol id="icon-plus" viewBox="0 0 32 32">
    <path stroke-linejoin="round" stroke-linecap="round" stroke-miterlimit="4" stroke-width="2.88" d="M16 6.667v18.666M6.666 16h18.667"></path>
    </symbol>
    <symbol id="icon-trash" viewBox="0 0 32 32">
    <path d="M20 2.4c0.884 0 1.6 0.716 1.6 1.6s-0.716 1.6-1.6 1.6h-8c-0.884 0-1.6-0.716-1.6-1.6s0.716-1.6 1.6-1.6h8z"></path>
    <path d="M28 6.4c0.884 0 1.6 0.716 1.6 1.6s-0.716 1.6-1.6 1.6h-1.17l-0.834 12.533c-0.068 1.026-0.125 1.889-0.228 2.592-0.093 0.632-0.236 1.234-0.516 1.805l-0.128 0.242c-0.49 0.861-1.198 1.573-2.050 2.069l-0.373 0.198c-0.665 0.322-1.357 0.448-2.084 0.506-0.709 0.056-1.574 0.055-2.603 0.055h-4.025c-1.029 0-1.895 0.002-2.603-0.055-0.637-0.051-1.246-0.153-1.834-0.394l-0.25-0.112c-0.891-0.432-1.649-1.091-2.2-1.908l-0.223-0.359c-0.366-0.642-0.538-1.324-0.644-2.047-0.052-0.352-0.091-0.743-0.127-1.175l-0.102-1.417-0.834-12.533h-1.17c-0.884 0-1.6-0.716-1.6-1.6s0.716-1.6 1.6-1.6h24zM9.198 21.919l0.097 1.37c0.031 0.382 0.064 0.698 0.105 0.972 0.078 0.528 0.168 0.771 0.256 0.927l0.097 0.155c0.236 0.35 0.561 0.632 0.942 0.817l0.141 0.058c0.163 0.056 0.402 0.106 0.802 0.138 0.553 0.044 1.27 0.045 2.35 0.045h4.025c1.080 0 1.797-0.001 2.35-0.045 0.532-0.042 0.781-0.117 0.942-0.195l0.159-0.084c0.365-0.212 0.668-0.519 0.878-0.888h0.001l0.066-0.136c0.067-0.159 0.132-0.394 0.191-0.791 0.080-0.548 0.13-1.265 0.202-2.342l0.822-12.319h-15.247l0.822 12.319z"></path>
    </symbol>
    <symbol id="icon-check" viewBox="0 0 32 32">
    <path fill="none" stroke="currentColor"  stroke-linejoin="miter" stroke-linecap="butt" stroke-miterlimit="4" stroke-width="6.432" d="M1.786 18.176l9.6 6.4 17.6-19.2"></path>
    </symbol>

    <symbol id="icon-x" width="28" height="28" viewBox="0 0 28 28" fill="none" xmlns="http://www.w3.org/2000/svg">
        <path d="M21 7L7 21" stroke="currentColor" stroke-width="2" stroke-linecap="round" stroke-linejoin="round"/>
        <path d="M7 7L21 21" stroke="currentColor" stroke-width="2" stroke-linecap="round" stroke-linejoin="round"/>
    </symbol>
    <symbol id="icon-chevron-down" viewBox="0 0 18 18" fill="none" xmlns="http://www.w3.org/2000/svg">
        <path d="M4.5 6.75L9 11.25L13.5 6.75" stroke="currentColor" stroke-width="1.5" stroke-linecap="round" stroke-linejoin="round"/>
    </symbol>
</defs>
</svg>
